<?xml version="1.0" encoding="UTF-8" standalone="no"?>
<!-- Created with Inkscape (http://www.inkscape.org/) -->

<svg
   width="3.75in"
   height="2.25in"
   viewBox="0 0 337.50001 202.5"
   id="svg2"
   version="1.1"
   inkscape:version="1.1.1 (3bf5ae0, 2021-09-20)"
   sodipodi:docname="FleurDeLysSinPalito.svg"
   inkscape:export-filename="G:\¡PinchePoutine!\tarjetas\TarjetaChefAntoine.png"
   inkscape:export-xdpi="90"
   inkscape:export-ydpi="90"
   xmlns:inkscape="http://www.inkscape.org/namespaces/inkscape"
   xmlns:sodipodi="http://sodipodi.sourceforge.net/DTD/sodipodi-0.dtd"
   xmlns="http://www.w3.org/2000/svg"
   xmlns:svg="http://www.w3.org/2000/svg"
   xmlns:rdf="http://www.w3.org/1999/02/22-rdf-syntax-ns#"
   xmlns:cc="http://creativecommons.org/ns#"
   xmlns:dc="http://purl.org/dc/elements/1.1/">
  <defs
     id="defs4" />
  <sodipodi:namedview
     id="base"
     pagecolor="#ffffff"
     bordercolor="#666666"
     borderopacity="1.0"
     inkscape:pageopacity="0.0"
     inkscape:pageshadow="2"
     inkscape:zoom="0.70000001"
     inkscape:cx="327.14285"
     inkscape:cy="169.28571"
     inkscape:document-units="px"
     inkscape:current-layer="layer1"
     showgrid="false"
     units="in"
     showguides="true"
     inkscape:guide-bbox="true"
     inkscape:window-width="1480"
     inkscape:window-height="784"
     inkscape:window-x="19"
     inkscape:window-y="13"
     inkscape:window-maximized="0"
     inkscape:snap-bbox="true"
     inkscape:bbox-nodes="true"
     inkscape:object-nodes="true"
     inkscape:snap-page="true"
     inkscape:pagecheckerboard="0">
    <sodipodi:guide
       position="22.500001,81.31728"
       orientation="1,0"
       id="guide4136"
       inkscape:label=""
       inkscape:color="rgb(0,0,255)"
       inkscape:locked="false" />
    <sodipodi:guide
       position="315.00001,64.144687"
       orientation="1,0"
       id="guide4138"
       inkscape:label=""
       inkscape:color="rgb(0,0,255)"
       inkscape:locked="false" />
    <sodipodi:guide
       position="6186.6144,7086.6142"
       orientation="0,1"
       id="guide4140"
       inkscape:label=""
       inkscape:color="rgb(0,0,255)"
       inkscape:locked="false" />
    <sodipodi:guide
       position="86.368045,22.5"
       orientation="0,1"
       id="guide4142"
       inkscape:label=""
       inkscape:color="rgb(0,0,255)"
       inkscape:locked="false" />
    <sodipodi:guide
       position="79.296977,180"
       orientation="0,1"
       id="guide4144"
       inkscape:label=""
       inkscape:color="rgb(0,0,255)"
       inkscape:locked="false" />
    <inkscape:grid
       type="xygrid"
       id="grid6327" />
  </sodipodi:namedview>
  <metadata
     id="metadata7">
    <rdf:RDF>
      <cc:Work
         rdf:about="">
        <dc:format>image/svg+xml</dc:format>
        <dc:type
           rdf:resource="http://purl.org/dc/dcmitype/StillImage" />
        <dc:title />
      </cc:Work>
    </rdf:RDF>
  </metadata>
  <g
     inkscape:label="Layer 1"
     inkscape:groupmode="layer"
     id="layer1"
     transform="translate(0,-849.86219)">
    <flowRoot
       xml:space="preserve"
       id="flowRoot4150"
       style="font-style:normal;font-weight:normal;line-height:0.01%;font-family:sans-serif;letter-spacing:0px;word-spacing:0px;fill:#000000;fill-opacity:1;stroke:none;stroke-width:1px;stroke-linecap:butt;stroke-linejoin:miter;stroke-opacity:1"
       transform="translate(0,849.86219)"><flowRegion
         id="flowRegion4152"><rect
           id="rect4154"
           width="29.642857"
           height="43.57143"
           x="43.92857"
           y="60.714287" /></flowRegion><flowPara
         id="flowPara4156"
         style="font-size:40px;line-height:1.25">Antonio</flowPara></flowRoot>
    <text
       xml:space="preserve"
       style="font-style:normal;font-weight:normal;line-height:0%;font-family:sans-serif;letter-spacing:0px;word-spacing:0px;fill:#000000;fill-opacity:1;stroke:none;stroke-width:1px;stroke-linecap:butt;stroke-linejoin:miter;stroke-opacity:1"
       x="290"
       y="1022.3622"
       id="text4255"><tspan
         sodipodi:role="line"
         id="tspan4257"
         x="290"
         y="1022.3622"
         style="font-size:12.5px;line-height:1.25"> </tspan></text>
    <text
       xml:space="preserve"
       style="font-style:normal;font-weight:normal;line-height:0%;font-family:sans-serif;letter-spacing:0px;word-spacing:0px;fill:#000000;fill-opacity:1;stroke:none;stroke-width:1px;stroke-linecap:butt;stroke-linejoin:miter;stroke-opacity:1"
       x="305"
       y="1027.3622"
       id="text4267"><tspan
         sodipodi:role="line"
         id="tspan4269"
         x="305"
         y="1027.3622"
         style="font-size:12.5px;line-height:1.25"> </tspan><tspan
         sodipodi:role="line"
         x="305"
         y="1042.9872"
         id="tspan4271"
         style="font-size:12.5px;line-height:1.25"> </tspan></text>
    <text
       xml:space="preserve"
       style="font-style:normal;font-weight:normal;line-height:0%;font-family:sans-serif;letter-spacing:0px;word-spacing:0px;fill:#000000;fill-opacity:1;stroke:none;stroke-width:1px;stroke-linecap:butt;stroke-linejoin:miter;stroke-opacity:1"
       x="187.63583"
       y="834.67432"
       id="text7254"><tspan
         sodipodi:role="line"
         id="tspan7256"
         x="187.63583"
         y="834.67432"
         style="font-size:12.5px;line-height:1.25"> </tspan></text>
    <g
       transform="matrix(-2.9387096,0,0,1.9869743,-1116.1923,990.27445)"
       inkscape:label="Calque 1"
       id="layer1-3"
       style="fill:#00aa00;fill-opacity:1">
      <path
         d="m -439.98352,-59.342618 c -2.46,2.75 -4.63,5.31 -6.34,8.16 -4.79,7.93 -6.4,16.53 -3.72,23.5 5.32,14.73 7.37,18.4799998 7.37,30.2099997 h -3.78 c -0.23,-12.9099997 -5.11,-21.5599997 -12.34,-24.1499997 -3.18,-1.23 -7.31,-0.62 -11.1,3.28 -4.68,4.82 -6.06,18.0999997 7.69,20.6599997 -1.45,-2.17 -1.32,-6.8899999 1.6,-8.5699999 2.22,-1.11 4.73,-0.67 5.9,0.28 1.9,1.15 3.72,4.7999999 3.72,8.4999999 h -6.53 v 7.29 h 13.56 c -0.18,3.7500003 -2.22,6.7600003 -6.03,8.4300003 0.49,1.58 2.79,4.78 5.94,4.57 0.62,3.41 1.22,5.33 4.06,8.43 2.84,-3.09 3.41,-5.02 4.03,-8.43 3.15,0.21 5.45,-2.99 5.94,-4.57 -3.81,-1.67 -5.85,-4.68 -6.03,-8.4300003 h 13.56 v -7.29 h -6.53 c 0,-3.7 1.83,-7.3499999 3.72,-8.4999999 1.17,-0.95 3.68,-1.39 5.9,-0.28 2.92,1.68 3.06,6.3999999 1.6,8.5699999 13.75,-2.56 12.4,-15.8399997 7.72,-20.6599997 -3.79,-3.9 -7.94,-4.51 -11.13,-3.28 -7.23,2.59 -12.07,11.24 -12.31,24.1499997 h -3.81 c 0,-11.7299999 2.05,-15.4699997 7.37,-30.2099997 2.68,-6.97 1.07,-15.57 -3.72,-23.5 -1.71,-2.85 -3.85,-5.41 -6.31,-8.16 z"
         style="fill:#00aa00;fill-opacity:0.95686275"
         id="path2406"
         inkscape:connector-curvature="0" />
    </g>
    <path
       sodipodi:type="spiral"
       style="fill:none;fill-rule:evenodd;stroke:#000000"
       id="path49"
       sodipodi:cx="68.939728"
       sodipodi:cy="56.501114"
       sodipodi:expansion="1"
       sodipodi:revolution="3"
       sodipodi:radius="86.833923"
       sodipodi:argument="-19.558035"
       sodipodi:t0="0"
       d="m 68.939728,56.501114 c 3.306004,-2.832873 5.449722,3.058788 4.708421,5.494796 -2.008879,6.601432 -10.694917,7.0181 -15.698013,3.922047 C 49.000771,60.379844 48.873448,47.779854 54.814464,40.016726 63.533142,28.624022 80.499966,28.811466 90.918912,37.667428 104.80573,49.471034 104.2831,70.937749 92.481835,83.975094 77.631144,100.38126 51.608757,99.514027 35.970951,84.751642 17.031473,66.872416 18.2481,36.265683 35.980778,18.037541 56.878126,-3.4436927 92.085933,-1.8749939 112.8981,18.833743 136.92656,42.742799 135.00416,82.56231 111.31552,105.95428 84.398981,132.53372 39.960583,130.25656 13.991767,103.58533 -15.141319,73.664234 -12.508685,24.601861 17.147093,-3.9416428 50.070627,-35.630342 103.76071,-32.641724 134.87728,5.7437287e-5"
       transform="matrix(0.93750001,0,0,0.93750001,0,849.86219)" />
  </g>
</svg>
