<?xml version="1.0" encoding="UTF-8" standalone="no"?>
<!-- Created with Inkscape (http://www.inkscape.org/) -->

<svg
   width="3.75in"
   height="2.25in"
   viewBox="0 0 337.50001 202.5"
   id="svg2"
   version="1.1"
   inkscape:version="1.1.1 (3bf5ae0, 2021-09-20)"
   sodipodi:docname="FleurDeLys.svg"
   inkscape:export-filename="G:\¡PinchePoutine!\tarjetas\TarjetaChefAntoine.png"
   inkscape:export-xdpi="90"
   inkscape:export-ydpi="90"
   xmlns:inkscape="http://www.inkscape.org/namespaces/inkscape"
   xmlns:sodipodi="http://sodipodi.sourceforge.net/DTD/sodipodi-0.dtd"
   xmlns:xlink="http://www.w3.org/1999/xlink"
   xmlns="http://www.w3.org/2000/svg"
   xmlns:svg="http://www.w3.org/2000/svg"
   xmlns:rdf="http://www.w3.org/1999/02/22-rdf-syntax-ns#"
   xmlns:cc="http://creativecommons.org/ns#"
   xmlns:dc="http://purl.org/dc/elements/1.1/">
  <defs
     id="defs4">
    <pattern
       inkscape:collect="always"
       xlink:href="#Checkerboardwhite"
       id="pattern1844"
       patternTransform="matrix(6.1547997,0,0,10.025099,-22.131563,-4.2132323)" />
    <pattern
       inkscape:stockid="Checkerboard white"
       id="Checkerboardwhite"
       patternTransform="translate(0,0) scale(10,10)"
       height="2"
       width="2"
       patternUnits="userSpaceOnUse"
       inkscape:collect="always">
      <rect
         id="rect7341"
         height="1"
         width="1"
         y="0"
         x="0"
         style="fill:white;stroke:none" />
      <rect
         id="rect7343"
         height="1"
         width="1"
         y="1"
         x="1"
         style="fill:white;stroke:none" />
    </pattern>
  </defs>
  <sodipodi:namedview
     id="base"
     pagecolor="#ffffff"
     bordercolor="#666666"
     borderopacity="1.0"
     inkscape:pageopacity="0.0"
     inkscape:pageshadow="2"
     inkscape:zoom="0.54638119"
     inkscape:cx="102.49255"
     inkscape:cy="295.58119"
     inkscape:document-units="px"
     inkscape:current-layer="layer1"
     showgrid="false"
     units="in"
     showguides="true"
     inkscape:guide-bbox="true"
     inkscape:window-width="1136"
     inkscape:window-height="784"
     inkscape:window-x="19"
     inkscape:window-y="13"
     inkscape:window-maximized="0"
     inkscape:snap-bbox="true"
     inkscape:bbox-nodes="true"
     inkscape:object-nodes="true"
     inkscape:snap-page="true"
     inkscape:pagecheckerboard="0">
    <sodipodi:guide
       position="22.500001,81.31728"
       orientation="1,0"
       id="guide4136"
       inkscape:label=""
       inkscape:color="rgb(0,0,255)"
       inkscape:locked="false" />
    <sodipodi:guide
       position="315.00001,64.144687"
       orientation="1,0"
       id="guide4138"
       inkscape:label=""
       inkscape:color="rgb(0,0,255)"
       inkscape:locked="false" />
    <sodipodi:guide
       position="6186.6144,7086.6142"
       orientation="0,1"
       id="guide4140"
       inkscape:label=""
       inkscape:color="rgb(0,0,255)"
       inkscape:locked="false" />
    <sodipodi:guide
       position="86.368045,22.5"
       orientation="0,1"
       id="guide4142"
       inkscape:label=""
       inkscape:color="rgb(0,0,255)"
       inkscape:locked="false" />
    <sodipodi:guide
       position="79.296977,180"
       orientation="0,1"
       id="guide4144"
       inkscape:label=""
       inkscape:color="rgb(0,0,255)"
       inkscape:locked="false" />
    <inkscape:grid
       type="xygrid"
       id="grid6327" />
  </sodipodi:namedview>
  <metadata
     id="metadata7">
    <rdf:RDF>
      <cc:Work
         rdf:about="">
        <dc:format>image/svg+xml</dc:format>
        <dc:type
           rdf:resource="http://purl.org/dc/dcmitype/StillImage" />
        <dc:title />
      </cc:Work>
    </rdf:RDF>
  </metadata>
  <g
     inkscape:label="Layer 1"
     inkscape:groupmode="layer"
     id="layer1"
     transform="translate(0,-849.86219)">
    <rect
       style="opacity:0.9;fill:#ffcc00;fill-opacity:0.956863;stroke:#ffffff;stroke-width:2.37599;stroke-miterlimit:4;stroke-dasharray:none;stroke-opacity:1"
       id="rect8022"
       width="337.31754"
       height="203.05099"
       x="0.18245243"
       y="849.86218"
       ry="0.51049709" />
    <rect
       ry="0.51177835"
       y="847.78198"
       x="-22.019268"
       height="203.56062"
       width="207.61218"
       id="rect8039"
       style="opacity:0.21759261;fill:url(#pattern1844);fill-opacity:1;stroke:#ffffff;stroke-width:1.86636102;stroke-miterlimit:4;stroke-dasharray:none;stroke-opacity:1" />
    <flowRoot
       xml:space="preserve"
       id="flowRoot4150"
       style="font-style:normal;font-weight:normal;line-height:0.01%;font-family:sans-serif;letter-spacing:0px;word-spacing:0px;fill:#000000;fill-opacity:1;stroke:none;stroke-width:1px;stroke-linecap:butt;stroke-linejoin:miter;stroke-opacity:1"
       transform="translate(0,849.86219)"><flowRegion
         id="flowRegion4152"><rect
           id="rect4154"
           width="29.642857"
           height="43.57143"
           x="43.92857"
           y="60.714287" /></flowRegion><flowPara
         id="flowPara4156"
         style="font-size:40px;line-height:1.25">Antonio</flowPara></flowRoot>
    <text
       xml:space="preserve"
       style="font-style:normal;font-weight:normal;line-height:0%;font-family:sans-serif;letter-spacing:0px;word-spacing:0px;fill:#000000;fill-opacity:1;stroke:none;stroke-width:1px;stroke-linecap:butt;stroke-linejoin:miter;stroke-opacity:1"
       x="290"
       y="1022.3622"
       id="text4255"><tspan
         sodipodi:role="line"
         id="tspan4257"
         x="290"
         y="1022.3622"
         style="font-size:12.5px;line-height:1.25"> </tspan></text>
    <text
       xml:space="preserve"
       style="font-style:normal;font-weight:normal;line-height:0%;font-family:sans-serif;letter-spacing:0px;word-spacing:0px;fill:#000000;fill-opacity:1;stroke:none;stroke-width:1px;stroke-linecap:butt;stroke-linejoin:miter;stroke-opacity:1"
       x="305"
       y="1027.3622"
       id="text4267"><tspan
         sodipodi:role="line"
         id="tspan4269"
         x="305"
         y="1027.3622"
         style="font-size:12.5px;line-height:1.25"> </tspan><tspan
         sodipodi:role="line"
         x="305"
         y="1042.9872"
         id="tspan4271"
         style="font-size:12.5px;line-height:1.25"> </tspan></text>
    <text
       xml:space="preserve"
       style="font-style:normal;font-weight:normal;line-height:0%;font-family:sans-serif;letter-spacing:0px;word-spacing:0px;fill:#000000;fill-opacity:1;stroke:none;stroke-width:1px;stroke-linecap:butt;stroke-linejoin:miter;stroke-opacity:1"
       x="187.63583"
       y="834.67432"
       id="text7254"><tspan
         sodipodi:role="line"
         id="tspan7256"
         x="187.63583"
         y="834.67432"
         style="font-size:12.5px;line-height:1.25"> </tspan></text>
    <g
       transform="matrix(-1.443113,0,0,0.97573892,-367.83837,945.45994)"
       inkscape:label="Calque 1"
       id="layer1-3"
       style="fill:#bd5d38;fill-opacity:1">
      <path
         d="m -439.98352,-59.342618 c -2.46,2.75 -4.63,5.31 -6.34,8.16 -4.79,7.93 -6.4,16.53 -3.72,23.5 5.32,14.73 7.37,18.4799998 7.37,30.2099997 h -3.78 c -0.23,-12.9099997 -5.11,-21.5599997 -12.34,-24.1499997 -3.18,-1.23 -7.31,-0.62 -11.1,3.28 -4.68,4.82 -6.06,18.0999997 7.69,20.6599997 -1.45,-2.17 -1.32,-6.8899999 1.6,-8.5699999 2.22,-1.11 4.73,-0.67 5.9,0.28 1.9,1.15 3.72,4.7999999 3.72,8.4999999 h -6.53 v 7.29 h 13.56 c -0.18,3.7500003 -2.22,6.7600003 -6.03,8.4300003 0.49,1.58 2.79,4.78 5.94,4.57 0.62,3.41 1.22,5.33 4.06,8.43 2.84,-3.09 3.41,-5.02 4.03,-8.43 3.15,0.21 5.45,-2.99 5.94,-4.57 -3.81,-1.67 -5.85,-4.68 -6.03,-8.4300003 h 13.56 v -7.29 h -6.53 c 0,-3.7 1.83,-7.3499999 3.72,-8.4999999 1.17,-0.95 3.68,-1.39 5.9,-0.28 2.92,1.68 3.06,6.3999999 1.6,8.5699999 13.75,-2.56 12.4,-15.8399997 7.72,-20.6599997 -3.79,-3.9 -7.94,-4.51 -11.13,-3.28 -7.23,2.59 -12.07,11.24 -12.31,24.1499997 h -3.81 c 0,-11.7299999 2.05,-15.4699997 7.37,-30.2099997 2.68,-6.97 1.07,-15.57 -3.72,-23.5 -1.71,-2.85 -3.85,-5.41 -6.31,-8.16 z"
         style="fill:#bd5d38;fill-opacity:1"
         id="path2406"
         inkscape:connector-curvature="0" />
    </g>
    <g
       style="fill:#00aa00;fill-opacity:1"
       id="g90"
       inkscape:label="Calque 1"
       transform="matrix(-0.49199671,0,0,-0.36615429,-177.64798,996.49871)">
      <path
         inkscape:connector-curvature="0"
         id="path88"
         style="fill:#00aa00;fill-opacity:0.95686275"
         d="m -439.98352,-59.342618 c -2.46,2.75 -4.63,5.31 -6.34,8.16 -4.79,7.93 -6.4,16.53 -3.72,23.5 5.32,14.73 7.37,18.4799998 7.37,30.2099997 h -3.78 c -0.23,-12.9099997 -5.11,-21.5599997 -12.34,-24.1499997 -3.18,-1.23 -7.31,-0.62 -11.1,3.28 -4.68,4.82 -6.06,18.0999997 7.69,20.6599997 -1.45,-2.17 -1.32,-6.8899999 1.6,-8.5699999 2.22,-1.11 4.73,-0.67 5.9,0.28 1.9,1.15 3.72,4.7999999 3.72,8.4999999 h -6.53 v 7.29 h 13.56 c -0.18,3.7500003 -2.22,6.7600003 -6.03,8.4300003 0.49,1.58 2.79,4.78 5.94,4.57 0.62,3.41 1.22,5.33 4.06,8.43 2.84,-3.09 3.41,-5.02 4.03,-8.43 3.15,0.21 5.45,-2.99 5.94,-4.57 -3.81,-1.67 -5.85,-4.68 -6.03,-8.4300003 h 13.56 v -7.29 h -6.53 c 0,-3.7 1.83,-7.3499999 3.72,-8.4999999 1.17,-0.95 3.68,-1.39 5.9,-0.28 2.92,1.68 3.06,6.3999999 1.6,8.5699999 13.75,-2.56 12.4,-15.8399997 7.72,-20.6599997 -3.79,-3.9 -7.94,-4.51 -11.13,-3.28 -7.23,2.59 -12.07,11.24 -12.31,24.1499997 h -3.81 c 0,-11.7299999 2.05,-15.4699997 7.37,-30.2099997 2.68,-6.97 1.07,-15.57 -3.72,-23.5 -1.71,-2.85 -3.85,-5.41 -6.31,-8.16 z" />
    </g>
    <rect
       style="fill:#00aa00;stroke-width:0.9375"
       id="rect146"
       width="3.3482144"
       height="34.82143"
       x="36.768829"
       y="939.35333"
       ry="0.51049685" />
    <rect
       ry="0.51049685"
       y="984.17419"
       x="75.459572"
       height="34.82143"
       width="3.3482144"
       id="rect148"
       style="fill:#00aa00;stroke-width:0.9375" />
    <path
       sodipodi:type="spiral"
       style="fill:none;fill-rule:evenodd;stroke:#000000"
       id="path59"
       sodipodi:cx="122.47507"
       sodipodi:cy="78.724815"
       sodipodi:expansion="1"
       sodipodi:revolution="3"
       sodipodi:radius="42.804577"
       sodipodi:argument="-20.88464"
       sodipodi:t0="0"
       d="m 122.47507,78.724815 c -0.96102,-1.918963 2.11259,-2.24218 3.18944,-1.597273 2.9182,1.747658 2.08229,5.952052 0.005,7.97616 -3.7156,3.620654 -9.75764,2.179877 -12.76287,-1.587066 -4.4103,-5.52814 -2.29852,-13.62143 3.17923,-17.549594 7.30099,-5.235626 17.50673,-2.427219 22.33631,4.771405 6.07754,9.058735 2.56135,21.402494 -6.36357,27.123029 -10.80928,6.928334 -25.3042,2.698654 -31.90975,-7.955745 -7.78441,-12.555844 -2.837967,-29.209603 9.54792,-36.696463 14.29999,-8.643875 33.11748,-2.978622 41.48318,11.140085 9.50563,16.042572 3.1202,37.027107 -12.73226,46.269897 -17.78406,10.36901 -40.937985,3.26247 -51.05661,-14.324425 -11.233591,-19.524784 -3.405234,-44.849823 15.91659,-55.84333"
       transform="matrix(0.93750001,0,0,0.93750001,0,849.86219)" />
  </g>
</svg>
